<svg xmlns="http://www.w3.org/2000/svg" width="157" height="49" viewBox="0 0 157 49"><defs><mask id="pfcxb" width="2" height="2" x="-1" y="-1"><path fill="#fff" d="M4 4h149v41H4z"/><path d="M15 4h136a2 2 0 0 1 2 2v37a2 2 0 0 1-2 2H15a2 2 0 0 1-2-2V30.72l-8.399-4.756c-.773-.439-.76-1.485 0-1.925.447-.258 4.51-2.564 8.399-4.765V6a2 2 0 0 1 2-2z"/></mask><filter id="pfcxa" width="179" height="71" x="-11" y="-11" filterUnits="userSpaceOnUse"><feOffset in="SourceGraphic" result="FeOffset1030Out"/><feGaussianBlur in="FeOffset1030Out" result="FeGaussianBlur1031Out" stdDeviation="2 2"/></filter></defs><g><g><g filter="url(#pfcxa)"><path fill="none" d="M15 4h136a2 2 0 0 1 2 2v37a2 2 0 0 1-2 2H15a2 2 0 0 1-2-2V30.72l-8.399-4.756c-.773-.439-.76-1.485 0-1.925.447-.258 4.51-2.564 8.399-4.765V6a2 2 0 0 1 2-2z" mask="url(&quot;#pfcxb&quot;)"/><path fill-opacity=".5" d="M15 4h136a2 2 0 0 1 2 2v37a2 2 0 0 1-2 2H15a2 2 0 0 1-2-2V30.72l-8.399-4.756c-.773-.439-.76-1.485 0-1.925.447-.258 4.51-2.564 8.399-4.765V6a2 2 0 0 1 2-2z"/></g><path fill="#fff" d="M15 4h136a2 2 0 0 1 2 2v37a2 2 0 0 1-2 2H15a2 2 0 0 1-2-2V30.72l-8.399-4.756c-.773-.439-.76-1.485 0-1.925.447-.258 4.51-2.564 8.399-4.765V6a2 2 0 0 1 2-2z"/></g></g></svg>