<?xml version="1.0" encoding="iso-8859-1"?>
<!-- Generator: Adobe Illustrator 19.0.0, SVG Export Plug-In . SVG Version: 6.00 Build 0)  -->
<svg version="1.1" id="Capa_1" xmlns="http://www.w3.org/2000/svg" xmlns:xlink="http://www.w3.org/1999/xlink" x="0px" y="0px"
	 viewBox="0 0 512.013 512.013" style="enable-background:new 0 0 512.013 512.013;" xml:space="preserve">
<g>
	<g>
		<path d="M511.911,199.227l-7.859-50.594c-0.35-2.261-1.596-4.284-3.447-5.615c-1.852-1.331-4.156-1.835-6.409-1.493l-36.207,6.135
			l-3.797-16.555l34.074-7.569c2.253-0.503,4.198-1.894,5.41-3.849c1.212-1.954,1.579-4.318,1.024-6.554l-8.533-34.133
			c-1.126-4.497-5.632-7.245-10.129-6.263l-76.8,17.067c-2.253,0.503-4.198,1.894-5.41,3.849c-1.212,1.954-1.579,4.318-1.024,6.554
			l8.533,34.133c0.947,3.874,4.42,6.468,8.252,6.468c0.614,0,1.237-0.068,1.86-0.196l26.069-5.794l3.601,15.701L65.524,214.126
			l-3.695-14.797l33.886-7.535c2.253-0.503,4.198-1.894,5.41-3.849c1.212-1.954,1.579-4.318,1.024-6.554l-8.533-34.133
			c-1.118-4.489-5.632-7.228-10.129-6.263l-76.8,17.067c-2.253,0.512-4.207,1.903-5.41,3.857c-1.212,1.954-1.579,4.318-1.024,6.554
			l8.533,34.133c0.964,3.874,4.437,6.468,8.269,6.468c0.614,0,1.237-0.068,1.86-0.196l26.249-5.828l3.49,13.952l-33.007,5.589
			c-4.599,0.785-7.723,5.12-7.006,9.728l7.859,50.594c0.35,2.253,1.587,4.267,3.43,5.598c1.468,1.067,3.217,1.621,5,1.621
			c0.461,0,0.922-0.043,1.391-0.119l164.216-27.076l-14.609,116.804H162.13c-19.14,0-34.133,11.785-34.133,26.82v6.101
			c0,15.027,14.993,26.812,34.133,26.812h187.733c11.725,0,34.133-10.445,34.133-26.82v-6.101c0-15.036-14.993-26.812-34.133-26.812
			h-5.265L328.53,251.186c-0.026-3.413-0.384-6.733-0.896-10.01l177.365-32.247C509.556,208.101,512.62,203.792,511.911,199.227z
			 M415.86,122.137l-4.395-17.57L471.6,91.203l4.395,17.57L415.86,122.137z M209.063,251.741c0-28.237,22.963-51.2,51.2-51.2
			c28.237,0,51.2,22.963,51.2,51.2c0,0.35,0.017,0.708,0.068,1.058l15.863,126.942H193.131l15.863-126.942
			C209.046,252.449,209.063,252.091,209.063,251.741z M23.327,190.403l-4.395-17.57l60.134-13.363l4.395,17.57L23.327,190.403z
			 M32.031,271.769l-5.239-33.766l181.837-30.797c-9.02,10.445-14.925,23.629-16.282,38.135L32.031,271.769z M337.063,396.808h12.8
			c9.771,0,17.067,5.146,17.067,9.745v6.101c0,3.191-10.539,9.754-17.067,9.754H162.13c-9.771,0-17.067-5.154-17.067-9.754v-6.101
			c0-4.599,7.305-9.745,17.067-9.745h21.333H337.063z M322.932,224.69c-5.845-13.491-15.949-24.687-28.578-32.009l194.142-32.879
			l5.256,33.826L322.932,224.69z"/>
	</g>
</g>
<g>
	<g>
		<path d="M255.997,226.141c-14.114,0-25.6,11.486-25.6,25.6s11.486,25.6,25.6,25.6c14.114,0,25.6-11.486,25.6-25.6
			S270.111,226.141,255.997,226.141z M255.997,260.274c-4.702,0-8.533-3.823-8.533-8.533s3.831-8.533,8.533-8.533
			c4.702,0,8.533,3.823,8.533,8.533S260.698,260.274,255.997,260.274z"/>
	</g>
</g>
<g>
</g>
<g>
</g>
<g>
</g>
<g>
</g>
<g>
</g>
<g>
</g>
<g>
</g>
<g>
</g>
<g>
</g>
<g>
</g>
<g>
</g>
<g>
</g>
<g>
</g>
<g>
</g>
<g>
</g>
</svg>
