<svg height="512" viewBox="0 0 16 16" width="512" xmlns="http://www.w3.org/2000/svg"><path d="m1.80474.390524c.390524.390524.390524 1.02369 0 1.41421-.390524.390524-1.02369.390524-1.41421 0-.390524-.390524-.390524-1.02369 0-1.41421.390524-.390524 1.02369-.390524 1.41421 0" transform="translate(6.902 8.902)"/><path d="m15 1h-1.0011c-.0002441-.551941-.447815-.999023-.999878-.999023-.552368 0-.999206.447266-.999817.999023h-.999207c-.552246 0-1 .447754-1 1s.447754 1 1 1h.999329l.0001831 1h-7.99951v-1h1c.552246 0 1-.447754 1-1s-.447754-1-1-1h-1c0-.552246-.447754-1-1-1s-1 .447754-1 1h-1c-.552246 0-1 .447754-1 1s.447754 1 1 1h1v2c0 .552246.447754 1 1 1h1.55646c-.344543.590759-.556458 1.26825-.556458 2 0 2.20557 1.79443 4 4 4s4-1.79443 4-4c0-.731751-.211914-1.40924-.556458-2h1.55646c.265137 0 .519531-.105469.707031-.292969s.292969-.441895.292969-.707031l-.0004883-2h1.00049c.552246 0 1-.447754 1-1s-.447754-1-1-1zm-5 7c0 1.10303-.896973 2-2 2-1.10303 0-2-.896973-2-2 0-1.10303.896973-2 2-2 1.10303 0 2 .896973 2 2z" transform="translate(0 2)"/></svg>